<?xml version="1.0" encoding="UTF-8"?>
<svg id="Layer_1" data-name="Layer 1" xmlns="http://www.w3.org/2000/svg" version="1.1" viewBox="0 0 612 236.24">
  <defs>
    <style>
      .cls-1 {
        fill: #010101;
        stroke-width: 0px;
      }
    </style>
  </defs>
  <path class="cls-1" d="M285.27,175.21c-.85,2.32-1.51,4.73-2.61,6.92-1.69,3.38-5.15,4.62-8.34,3.28-3.19-1.33-3.85-3.7-2.46-7.87.86-2.56,1.44-5.22,2.14-7.84l.59.13c-.07-.08-.17-.22-.19-.21-.12.06-.22.16-.33.25-6.58,3.54-13.01,7.43-19.8,10.51-5.57,2.52-11.49,4.37-17.41,5.96-4.9,1.32-9.95.78-14.69-1.23-3.34-1.42-4.79-4.58-3.71-7.67,1.21-3.47,4.15-4.79,8-3.58,3.87,1.22,4.72.66,4.96-3.27.04-.66.02-1.33-.04-2-.65-6.74-1.31-13.48-2-20.61-1.33-.12-2.95-.32-4.58-.39-45.46-1.77-90.92-1.83-136.38-.04-8.15.32-16.3.65-24.43,1.27-7.37.56-14.43,2.45-20.83,6.34-.71.43-1.43.88-2.2,1.18-3.02,1.15-6.59-.21-8.12-3.06-1.35-2.52-.8-4.51,2.22-6.8,8.4-6.36,18.15-8.96,28.44-9.63,37.92-2.47,75.9-2.74,113.88-2.28,18.32.22,36.63.8,54.95,1.34,2.84.08,5.02-.55,7.19-2.49,3.42-3.06,7.48-5,12.28-4.65,5.36.38,9.13,5.12,8.29,10.38-.85,5.31-5.69,7.75-10.44,5.23-.85-.45-1.62-1.05-2.48-1.62-4.57,3.37-5.86,7.91-5.33,12.91.56,5.28,1.65,10.5,2.63,16.52,9.81-3.47,17.7-9.93,26.54-14.52,4.75,5.84,9.51,11.68,14.26,17.52Z"/>
  <path class="cls-1" d="M296.17,167.63c7.91,4.24,15.88,1.37,23.74-.04,15.55-2.79,30.28-8.11,43.6-16.6,10.51-6.7,21.93-9.44,34.06-9.97,43.1-1.89,86.22-2.79,129.37-1.47,11.65.36,23.3.72,34.95,1.1,1.33.04,2.7.07,3.96.41,2.64.72,4.39,3.34,4.17,6.09-.23,2.82-1.7,4.66-4.55,5.15-1.14.2-2.32.24-3.47.19-46.45-1.99-92.9-2.15-139.36-.54-10.97.38-21.95,1.07-32.89,1.97-6.88.57-13.19,3.07-19.12,6.73-17.99,11.1-37.6,17.61-58.56,20.04-2.63.3-5.31.1-7.97.13-1.49-2.3-3.03-4.57-4.45-6.92-1.24-2.05-2.33-4.19-3.48-6.28Z"/>
  <path class="cls-1" d="M291.94,129.88c4.29-10.45,8.44-20.97,12.9-31.35,11.36-26.46,22.86-52.85,34.3-79.27.4-.92.76-1.85,1.22-2.74,1.74-3.41,3.81-4.48,6.73-3.52,2.9.95,4.7,3.89,4.2,7.1-.18,1.13-.62,2.24-1.08,3.3-14.73,34.25-29.47,68.49-44.22,102.73-.26.6-.66,1.15-1,1.72-4.47-.08-8.93-.09-13.05,2.04Z"/>
  <path class="cls-1" d="M291.94,129.88c4.13-2.13,8.58-2.12,13.05-2.04-.98,2.77-1.96,5.53-3.2,9,1.7-.46,2.72-.73,3.74-1.02,2.07-.58,4.11-1.41,6.23-1.69,9.17-1.24,15.68,7.45,12.07,15.99-1.33,3.14-5.49,4.03-8.4,1.5-1.44-1.25-2.33-3.12-3.72-5.05-4.64.33-7.8,3.96-11.5,6.57-4.02-4.75-8.04-9.51-12.07-14.26,1.26-3,2.53-6.01,3.79-9.01Z"/>
  <path class="cls-1" d="M296.17,167.63c1.15,2.1,2.24,4.23,3.48,6.28,1.41,2.35,2.96,4.61,4.45,6.92-6.22.53-11.84-.83-16.61-5.11-.49-.44-1.47-.35-2.22-.51-4.75-5.84-9.51-11.68-14.26-17.52,3.34-2.33,6.68-4.65,10.02-6.98,4.3,5.2,8.59,10.4,12.92,15.56.28.33.91.35,1.38.52.28.28.56.56.84.84Z"/>
  <path class="cls-1" d="M295.33,166.79c-.47-.17-1.1-.19-1.38-.52-4.34-5.17-8.62-10.37-12.92-15.56,2.4-1.61,3.62-3.94,4.48-6.65.58-1.82,1.74-3.45,2.64-5.17,4.02,4.75,8.04,9.51,12.07,14.26-3.97,3.71-5.44,8.31-4.89,13.64Z"/>
</svg>