<?xml version="1.0" encoding="UTF-8"?>
<svg id="Lager_1" data-name="Lager 1" xmlns="http://www.w3.org/2000/svg" version="1.1" viewBox="0 0 285.36 113.32">
  <defs>
    <style>
      .cls-1 {
        fill: #000;
        stroke-width: 0px;
      }
    </style>
  </defs>
  <g>
    <path class="cls-1" d="M51.11,93.17c-4.88,0-9.77,0-14.65,0-.66,0-1.33.03-1.99-.04-3.44-.32-4.58-2.56-2.73-5.41,2.08-3.21,4.18-6.41,6.36-9.56.88-1.27.81-1.9-.63-2.79-3.52-2.19-6.54-4.96-8.44-8.69-.63-1.24-1.53-1.77-2.96-1.65-1.23.11-2.48.07-3.72,0-.64-.04-1.32-.17-1.87-.47-.34-.19-.7-.79-.64-1.13.07-.36.59-.73,1.01-.89.44-.17.98-.11,1.47-.11,5.21,0,10.43,0,15.64,0,1.06,0,2.53-.14,2.5,1.27-.03,1.21-1.37,1.38-2.53,1.36-1.82-.04-3.64.02-5.46-.01-1.02-.02-1.12.38-.68,1.16,1.83,3.2,4.54,5.52,7.73,7.36,1.13.65,1.64-.07,2.16-.87,1.88-2.85,3.81-5.68,5.67-8.55,2.62-4.01,4.61-4.02,7.27,0,1.71,2.58,3.48,5.13,5.14,7.74.78,1.23,1.49,1.42,2.78.59,6.13-3.94,10.31-13.26,9.13-20.38-.77-4.69-2.63-8.82-5.87-12.38-1.04-1.14-1.8-1.44-3.26-.44-2.73,1.88-5.77,2.01-8.61.17-1.33-.86-1.83-.36-2.52.66-1.46,2.16-2.98,4.28-4.51,6.39-2.36,3.26-4.12,3.55-7.46,1.26-.27-.19-.52-.4-.79-.59-3.51-2.4-3.78-4.07-1.36-7.42,4.2-5.81,8.35-11.66,12.51-17.5,2.44-3.43,4.05-3.72,7.58-1.34,1.73,1.16,3.41,2.29,3.74,4.58.06.42.73.8,1.17,1.13,2.77,2.09,4.37,4.66,3.45,8.2-.35,1.36.66,1.91,1.38,2.62,3.59,3.56,5.94,7.78,6.83,12.7,1.72,9.43-1.43,17.2-8.68,23.48-.37.32-.77.61-1.16.91q-1.77,1.32-.52,3.22c2.07,3.13,4.14,6.25,6.22,9.38.14.2.28.4.41.61,1.84,2.99.58,5.37-3,5.43-5.38.09-10.76.02-16.14.02h0ZM42.66,46.78c.73-.5,1.31-.73,1.62-1.15,2.11-2.9,4.18-5.82,6.2-8.77.28-.41.33-1.07.26-1.59-.78-5.55.81-8.12,6.25-9.78,1.22-.37,1.03-.84.34-1.46-.48-.44-1.05-.79-1.6-1.15-1.7-1.11-2.34-1.07-3.51.54-4.4,6.06-8.76,12.15-13.09,18.26-.38.53-.72,1.69-.46,1.94,1.19,1.16,2.6,2.11,3.98,3.16ZM50.95,83.94c3.35.02,5.91-2.4,5.91-5.59,0-3.23-2.5-5.61-5.87-5.6-3.25.01-5.84,2.58-5.8,5.73.05,3.07,2.55,5.44,5.75,5.46Z"/>
    <path class="cls-1" d="M40.41,51.62c.03,1.47-3.42,5.55-4.64,5.58-2.02.06-3.35-1.26-4.5-2.63-.95-1.13-.24-2.29.41-3.35q2.4-3.91,6.18-1.45c.62.4,1.28.74,1.88,1.17.31.21.53.54.67.68Z"/>
    <path class="cls-1" d="M66.05,15.65c-.48.8-1.07,1.84-1.72,2.85-.3.48-.76.86-1.03,1.35-.71,1.28-1.49,1.12-2.5.31-.95-.77-1.99-1.43-3.02-2.09-1.75-1.1-1.77-1.08-.71-2.7.44-.68.93-1.33,1.4-2,.83-1.17,1.81-2.3,3.41-1.85,1.78.5,3.22,1.6,4.04,3.31.07.14.06.31.14.82Z"/>
  </g>
  <g>
    <path class="cls-1" d="M89.31,30.89h6.64v25.65c0,1.69.29,3.27.86,4.75.58,1.48,1.4,2.78,2.47,3.89,1.07,1.11,2.37,1.99,3.89,2.64,1.52.65,3.21.97,5.08.97s3.58-.32,5.09-.97c1.51-.65,2.79-1.52,3.86-2.64,1.06-1.11,1.88-2.41,2.44-3.89.57-1.48.85-3.06.85-4.75v-25.65h2.92v25.65c0,2.03-.33,3.93-.98,5.72s-1.68,3.35-3.08,4.69c-1.4,1.34-3.19,2.4-5.38,3.19-2.18.78-4.81,1.18-7.86,1.18-2.72,0-5.13-.39-7.22-1.18-2.1-.78-3.85-1.85-5.27-3.2-1.42-1.35-2.49-2.93-3.22-4.75-.72-1.82-1.09-3.76-1.09-5.82v-25.47Z"/>
    <path class="cls-1" d="M164.55,30.89v2.56h-14.3v36.93h-6.64v-36.93h-14.3v-2.56h35.24Z"/>
    <path class="cls-1" d="M170.45,30.89h6.64v25.65c0,1.69.29,3.27.86,4.75.58,1.48,1.4,2.78,2.47,3.89,1.07,1.11,2.37,1.99,3.89,2.64,1.52.65,3.21.97,5.08.97s3.58-.32,5.09-.97c1.51-.65,2.79-1.52,3.86-2.64,1.06-1.11,1.88-2.41,2.44-3.89.57-1.48.85-3.06.85-4.75v-25.65h2.92v25.65c0,2.03-.33,3.93-.98,5.72s-1.68,3.35-3.08,4.69c-1.4,1.34-3.19,2.4-5.38,3.19-2.18.78-4.81,1.18-7.86,1.18-2.72,0-5.13-.39-7.22-1.18-2.1-.78-3.85-1.85-5.27-3.2-1.42-1.35-2.49-2.93-3.22-4.75-.72-1.82-1.09-3.76-1.09-5.82v-25.47Z"/>
    <path class="cls-1" d="M214.68,30.89h3.72l25.88,28.89h.3v-28.89h2.92v40.42h-1.55l-28.03-32.11h-.24v31.18h-3.01V30.89Z"/>
    <path class="cls-1" d="M258.22,30.89h6.64v39.49h-6.64V30.89Z"/>
  </g>
  <g>
    <path class="cls-1" d="M95.1,78.1v10.1c0,.61.11,1.16.34,1.64.23.48.52.89.88,1.23.36.34.77.59,1.22.77.46.18.92.27,1.38.27s.98-.08,1.47-.25c.49-.17.93-.41,1.32-.73.39-.32.71-.72.96-1.21.25-.48.37-1.04.37-1.68v-10.14h1.59v10.03c0,.58-.08,1.12-.23,1.61-.15.49-.37.94-.64,1.34s-.59.75-.96,1.06c-.37.3-.76.56-1.18.77s-.86.36-1.32.47c-.46.1-.91.16-1.36.16s-.86-.05-1.3-.16c-.44-.1-.86-.26-1.26-.46-.4-.2-.78-.46-1.13-.76-.35-.3-.66-.66-.91-1.06s-.46-.85-.61-1.35-.23-1.05-.23-1.64v-9.99h1.59Z"/>
    <path class="cls-1" d="M110.48,79.12v3.03h1.93v1.35h-1.93v7.17c0,.24.03.43.09.6.06.16.14.29.25.39.1.1.23.16.37.2.14.04.3.06.46.06.2,0,.41-.02.62-.06.21-.04.4-.08.56-.11v1.3c-.19.06-.43.11-.72.17-.3.06-.6.09-.92.09-.27,0-.55-.04-.82-.11-.28-.07-.52-.19-.74-.36-.22-.17-.4-.38-.53-.64-.14-.26-.2-.58-.2-.96v-7.72h-1.68v-1.35h1.68v-3.03h1.59Z"/>
    <path class="cls-1" d="M119.71,86.11l4.03,6.97h-1.86l-3.3-5.83-1.97,1.98v3.86h-1.59v-15.06h1.59v9.09l5.09-4.96h1.96l-3.95,3.96Z"/>
    <path class="cls-1" d="M134.54,93.17c-.1.04-.23.07-.39.09-.16.02-.3.04-.4.04-.44,0-.82-.17-1.12-.51-.3-.34-.47-.86-.51-1.56-.34.44-.68.8-1.01,1.07-.33.27-.67.48-.99.63-.33.15-.66.25-.99.3-.33.05-.67.08-1.01.08-.44,0-.86-.07-1.25-.21s-.73-.35-1.01-.61c-.29-.26-.52-.58-.68-.96s-.25-.79-.25-1.25.1-.85.3-1.18c.2-.33.47-.61.8-.84.33-.24.71-.44,1.13-.6.42-.16.85-.3,1.29-.43.44-.13.87-.25,1.29-.36s.8-.24,1.13-.38c.33-.14.6-.3.8-.48.2-.18.3-.41.3-.68,0-.32-.06-.59-.18-.84s-.29-.45-.52-.62c-.22-.17-.49-.29-.81-.38s-.66-.13-1.04-.13c-.32,0-.63.04-.91.12-.29.08-.54.2-.77.36s-.42.35-.57.58-.25.49-.29.79h-1.67c.04-.53.18-1,.43-1.41s.57-.75.96-1.03c.39-.28.83-.49,1.32-.63.49-.14.99-.21,1.51-.21.56,0,1.09.07,1.58.2.5.14.94.34,1.32.62s.68.63.9,1.06c.22.43.33.93.33,1.5v5.66c0,.28.07.5.21.67.14.17.31.25.52.25.09,0,.18-.01.27-.04v1.31ZM131.95,87c-.22.24-.51.43-.87.59-.35.15-.73.29-1.14.41-.4.12-.81.24-1.22.35s-.78.25-1.11.41c-.33.16-.6.35-.81.57-.21.23-.31.51-.31.85,0,.31.05.57.16.78s.25.39.42.53c.17.14.37.24.59.31s.45.1.68.1c.66,0,1.3-.2,1.94-.6.63-.4,1.19-1.02,1.67-1.85v-2.46Z"/>
    <path class="cls-1" d="M136.76,82.15h1.59v1.61c.56-.64,1.16-1.11,1.8-1.4s1.31-.43,1.99-.43c.51,0,.96.08,1.36.23s.74.37,1.02.64.49.62.64,1.01c.15.4.22.84.22,1.34v7.93h-1.59v-7.72c0-.37-.04-.69-.13-.94-.09-.25-.22-.46-.39-.62-.17-.16-.38-.27-.62-.34s-.52-.11-.82-.11c-.49,0-.94.09-1.36.26s-.79.4-1.11.68c-.32.28-.56.61-.75.98-.18.37-.27.75-.27,1.14v6.67h-1.59v-10.94Z"/>
    <path class="cls-1" d="M150.71,79.12v3.03h1.93v1.35h-1.93v7.17c0,.24.03.43.09.6.06.16.14.29.25.39.1.1.23.16.37.2.14.04.3.06.46.06.2,0,.41-.02.62-.06.21-.04.4-.08.56-.11v1.3c-.19.06-.43.11-.72.17-.3.06-.6.09-.92.09-.27,0-.55-.04-.82-.11-.28-.07-.52-.19-.74-.36-.22-.17-.4-.38-.53-.64-.14-.26-.2-.58-.2-.96v-7.72h-1.68v-1.35h1.68v-3.03h1.59Z"/>
    <path class="cls-1" d="M163.88,93.08h-1.59v-1.96c-.28.37-.57.67-.88.92-.3.25-.62.45-.94.61-.32.15-.65.26-.98.33-.33.06-.67.1-1.02.1-.5,0-.95-.08-1.35-.23-.4-.15-.74-.37-1.02-.64s-.49-.62-.64-1.01c-.15-.4-.22-.84-.22-1.34v-7.71h1.59v7.51c0,.37.04.69.13.95.09.26.22.47.39.63.17.16.37.28.62.35s.52.11.83.11c.48,0,.93-.09,1.35-.29.42-.19.79-.43,1.11-.73.32-.3.56-.63.75-.99.18-.37.27-.72.27-1.07v-6.46h1.59v10.94Z"/>
    <path class="cls-1" d="M167.1,82.15h1.59v1.61c.56-.64,1.16-1.11,1.8-1.4s1.31-.43,1.99-.43c.51,0,.96.08,1.36.23s.74.37,1.02.64.49.62.64,1.01c.15.4.22.84.22,1.34v7.93h-1.59v-7.72c0-.37-.04-.69-.13-.94-.09-.25-.22-.46-.39-.62-.17-.16-.38-.27-.62-.34s-.52-.11-.82-.11c-.49,0-.94.09-1.36.26s-.79.4-1.11.68c-.32.28-.56.61-.75.98-.18.37-.27.75-.27,1.14v6.67h-1.59v-10.94Z"/>
    <path class="cls-1" d="M180.54,78.02v1.86h-1.59v-1.86h1.59ZM180.54,82.15v10.94h-1.59v-10.94h1.59Z"/>
    <path class="cls-1" d="M187.33,91.2l3.15-9.06h1.68l-3.95,10.94h-1.73l-3.99-10.94h1.71l3.14,9.06Z"/>
    <path class="cls-1" d="M194.49,87.88c0,.5.09.99.26,1.48.17.48.4.91.69,1.29.29.38.63.68,1.03.91.39.23.82.35,1.28.35,1.55,0,2.57-.72,3.08-2.16h1.45c-.12.56-.33,1.06-.61,1.5-.29.44-.63.81-1.04,1.12-.41.3-.86.54-1.35.69s-1,.24-1.53.24c-.75,0-1.43-.16-2.04-.48-.6-.32-1.12-.75-1.55-1.29s-.76-1.16-.99-1.86c-.23-.71-.34-1.44-.34-2.22,0-.72.11-1.42.34-2.08s.56-1.25.98-1.76c.43-.51.94-.91,1.55-1.21.6-.3,1.28-.45,2.04-.45s1.39.14,1.97.41c.58.27,1.08.65,1.5,1.13s.73,1.04.96,1.69.33,1.34.33,2.09v.63h-8ZM200.85,86.66c-.01-.46-.1-.89-.25-1.29-.15-.4-.37-.75-.64-1.05-.28-.3-.61-.54-1-.71s-.83-.26-1.32-.26c-.44,0-.86.09-1.24.28s-.71.43-.99.74-.5.66-.66,1.06c-.16.4-.25.81-.25,1.23h6.36Z"/>
    <path class="cls-1" d="M204.97,82.15h1.59l-.06,1.82c.34-.59.73-1.05,1.19-1.36.45-.32.99-.47,1.59-.47.05,0,.12,0,.21.01.09,0,.18.02.28.03.1.01.19.03.28.04.09.02.16.04.21.06v1.62c-.17-.06-.35-.1-.56-.13-.21-.03-.36-.05-.46-.05-.42,0-.8.08-1.13.24s-.61.37-.84.64c-.23.27-.4.58-.53.92-.12.35-.18.71-.18,1.09v6.49h-1.59v-10.94Z"/>
    <path class="cls-1" d="M212.69,89.75c0,.39.08.73.2,1s.3.49.53.67.48.3.78.38c.3.08.62.12.98.12.29,0,.59-.03.91-.08.32-.05.61-.14.88-.27s.48-.3.66-.52c.17-.22.26-.5.26-.83,0-.31-.09-.57-.28-.78s-.43-.4-.73-.57-.64-.31-1.03-.45c-.39-.13-.78-.27-1.18-.41s-.79-.3-1.18-.47c-.39-.17-.73-.37-1.03-.61s-.54-.52-.73-.84-.28-.71-.28-1.16.1-.9.31-1.27.49-.69.83-.94c.35-.25.75-.45,1.2-.58.45-.13.92-.2,1.41-.2.55,0,1.06.07,1.54.2.47.13.89.33,1.24.59.35.26.64.59.85.98.21.39.33.84.35,1.35h-1.63c-.04-.29-.12-.54-.25-.75-.13-.21-.3-.39-.52-.53-.21-.14-.45-.24-.72-.31-.27-.07-.55-.1-.85-.1-.35,0-.66.04-.93.13-.27.09-.49.2-.68.35-.18.15-.32.32-.41.51s-.14.39-.14.6c0,.28.09.52.28.73s.43.39.73.56.64.32,1.03.45.78.28,1.18.42c.4.15.79.31,1.18.48s.73.37,1.03.6c.3.23.54.49.73.79s.28.66.28,1.06c0,.59-.12,1.09-.35,1.5-.23.41-.55.75-.94,1.01-.39.26-.85.45-1.37.58-.52.12-1.06.18-1.63.18s-1.07-.07-1.57-.22c-.49-.15-.93-.37-1.3-.66s-.67-.66-.9-1.11c-.22-.44-.35-.96-.37-1.56h1.64Z"/>
    <path class="cls-1" d="M223.52,78.02v1.86h-1.59v-1.86h1.59ZM223.52,82.15v10.94h-1.59v-10.94h1.59Z"/>
    <path class="cls-1" d="M228.84,79.12v3.03h1.93v1.35h-1.93v7.17c0,.24.03.43.09.6.06.16.14.29.25.39.1.1.23.16.37.2.14.04.3.06.46.06.2,0,.41-.02.62-.06.21-.04.4-.08.56-.11v1.3c-.19.06-.43.11-.72.17-.3.06-.6.09-.92.09-.27,0-.55-.04-.82-.11-.28-.07-.52-.19-.74-.36-.22-.17-.4-.38-.53-.64-.14-.26-.2-.58-.2-.96v-7.72h-1.68v-1.35h1.68v-3.03h1.59Z"/>
    <path class="cls-1" d="M234.3,87.88c0,.5.09.99.26,1.48.17.48.4.91.69,1.29.29.38.63.68,1.03.91.39.23.82.35,1.28.35,1.55,0,2.57-.72,3.08-2.16h1.45c-.12.56-.33,1.06-.61,1.5-.29.44-.63.81-1.04,1.12-.41.3-.86.54-1.35.69s-1,.24-1.53.24c-.75,0-1.43-.16-2.04-.48-.6-.32-1.12-.75-1.55-1.29s-.76-1.16-.99-1.86c-.23-.71-.34-1.44-.34-2.22,0-.72.11-1.42.34-2.08s.56-1.25.98-1.76c.43-.51.94-.91,1.55-1.21.6-.3,1.28-.45,2.04-.45s1.39.14,1.97.41c.58.27,1.08.65,1.5,1.13s.73,1.04.96,1.69.33,1.34.33,2.09v.63h-8ZM240.66,86.66c-.01-.46-.1-.89-.25-1.29-.15-.4-.37-.75-.64-1.05-.28-.3-.61-.54-1-.71s-.83-.26-1.32-.26c-.44,0-.86.09-1.24.28s-.71.43-.99.74-.5.66-.66,1.06c-.16.4-.25.81-.25,1.23h6.36Z"/>
    <path class="cls-1" d="M246.87,79.12v3.03h1.93v1.35h-1.93v7.17c0,.24.03.43.09.6.06.16.14.29.25.39.1.1.23.16.37.2.14.04.3.06.46.06.2,0,.41-.02.62-.06.21-.04.4-.08.56-.11v1.3c-.19.06-.43.11-.72.17-.3.06-.6.09-.92.09-.27,0-.55-.04-.82-.11-.28-.07-.52-.19-.74-.36-.22-.17-.4-.38-.53-.64-.14-.26-.2-.58-.2-.96v-7.72h-1.68v-1.35h1.68v-3.03h1.59Z"/>
    <path class="cls-1" d="M252.34,87.88c0,.5.09.99.26,1.48.17.48.4.91.69,1.29.29.38.63.68,1.03.91.39.23.82.35,1.28.35,1.55,0,2.57-.72,3.08-2.16h1.45c-.12.56-.33,1.06-.61,1.5-.29.44-.63.81-1.04,1.12-.41.3-.86.54-1.35.69s-1,.24-1.53.24c-.75,0-1.43-.16-2.04-.48-.6-.32-1.12-.75-1.55-1.29s-.76-1.16-.99-1.86c-.23-.71-.34-1.44-.34-2.22,0-.72.11-1.42.34-2.08s.56-1.25.98-1.76c.43-.51.94-.91,1.55-1.21.6-.3,1.28-.45,2.04-.45s1.39.14,1.97.41c.58.27,1.08.65,1.5,1.13s.73,1.04.96,1.69.33,1.34.33,2.09v.63h-8ZM258.7,86.66c-.01-.46-.1-.89-.25-1.29-.15-.4-.37-.75-.64-1.05-.28-.3-.61-.54-1-.71s-.83-.26-1.32-.26c-.44,0-.86.09-1.24.28s-.71.43-.99.74-.5.66-.66,1.06c-.16.4-.25.81-.25,1.23h6.36Z"/>
    <path class="cls-1" d="M264.91,79.12v3.03h1.93v1.35h-1.93v7.17c0,.24.03.43.09.6.06.16.14.29.25.39.1.1.23.16.37.2.14.04.3.06.46.06.2,0,.41-.02.62-.06.21-.04.4-.08.56-.11v1.3c-.19.06-.43.11-.72.17-.3.06-.6.09-.92.09-.27,0-.55-.04-.82-.11-.28-.07-.52-.19-.74-.36-.22-.17-.4-.38-.53-.64-.14-.26-.2-.58-.2-.96v-7.72h-1.68v-1.35h1.68v-3.03h1.59Z"/>
  </g>
</svg>